<svg width="10" height="11" viewBox="0 0 10 11" fill="none" xmlns="http://www.w3.org/2000/svg">
<path d="M4.52941 7.4625L1.53191 4.03625C1.17816 3.63313 1.46566 3 2.00254 3H7.99754C8.11769 2.9999 8.23533 3.03443 8.33636 3.09946C8.43739 3.1645 8.51753 3.25727 8.56719 3.36668C8.61685 3.47609 8.63392 3.5975 8.61636 3.71636C8.5988 3.83522 8.54734 3.9465 8.46816 4.03688L5.47066 7.46187C5.412 7.52901 5.33965 7.58281 5.25848 7.61967C5.17731 7.65654 5.08919 7.67561 5.00004 7.67561C4.91089 7.67561 4.82277 7.65654 4.7416 7.61967C4.66042 7.58281 4.58808 7.52901 4.52941 7.46187V7.4625Z" fill="#222222"/>
</svg>
