<svg width="25" height="24" viewBox="0 0 25 24" fill="none" xmlns="http://www.w3.org/2000/svg">
<path d="M18.6923 21C20.3492 21 21.6923 19.6569 21.6923 18C21.6923 16.3431 20.3492 15 18.6923 15C17.0355 15 15.6923 16.3431 15.6923 18C15.6923 19.6569 17.0355 21 18.6923 21Z" stroke="#797F8F" stroke-linecap="round" stroke-linejoin="round"/>
<path d="M6.69232 9C8.34918 9 9.69232 7.65685 9.69232 6C9.69232 4.34315 8.34918 3 6.69232 3C5.03547 3 3.69232 4.34315 3.69232 6C3.69232 7.65685 5.03547 9 6.69232 9Z" stroke="#797F8F" stroke-linecap="round" stroke-linejoin="round"/>
<path d="M13.6923 6H16.6923C17.2228 6 17.7315 6.21071 18.1065 6.58579C18.4816 6.96086 18.6923 7.46957 18.6923 8V15" stroke="#797F8F" stroke-linecap="round" stroke-linejoin="round"/>
<path d="M6.69232 9V21" stroke="#797F8F" stroke-linecap="round" stroke-linejoin="round"/>
</svg>
