<svg width="25" height="24" viewBox="0 0 25 24" fill="none" xmlns="http://www.w3.org/2000/svg">
<path d="M6.69232 9V2H18.6923V9" stroke="#797F8F" stroke-linecap="round" stroke-linejoin="round"/>
<path d="M6.69232 18H4.69232C4.16189 18 3.65318 17.7893 3.27811 17.4142C2.90304 17.0391 2.69232 16.5304 2.69232 16V11C2.69232 10.4696 2.90304 9.96086 3.27811 9.58579C3.65318 9.21071 4.16189 9 4.69232 9H20.6923C21.2228 9 21.7315 9.21071 22.1065 9.58579C22.4816 9.96086 22.6923 10.4696 22.6923 11V16C22.6923 16.5304 22.4816 17.0391 22.1065 17.4142C21.7315 17.7893 21.2228 18 20.6923 18H18.6923" stroke="#797F8F" stroke-linecap="round" stroke-linejoin="round"/>
<path d="M18.6923 14H6.69232V22H18.6923V14Z" stroke="#797F8F" stroke-linecap="round" stroke-linejoin="round"/>
</svg>
