<svg width="8" height="6" viewBox="0 0 8 6" fill="none" xmlns="http://www.w3.org/2000/svg">
<path d="M3.52941 4.9625L0.531912 1.53625C0.178162 1.13313 0.465662 0.5 1.00254 0.5H6.99754C7.11769 0.499897 7.23533 0.53443 7.33636 0.599463C7.43739 0.664496 7.51753 0.757273 7.56719 0.866683C7.61685 0.976093 7.63392 1.0975 7.61636 1.21636C7.5988 1.33522 7.54734 1.4465 7.46816 1.53688L4.47066 4.96187C4.412 5.02901 4.33965 5.08281 4.25848 5.11967C4.17731 5.15654 4.08919 5.17561 4.00004 5.17561C3.91089 5.17561 3.82277 5.15654 3.7416 5.11967C3.66042 5.08281 3.58808 5.02901 3.52941 4.96187V4.9625Z" fill="#222222"/>
</svg>
