<svg width="32" height="36" viewBox="0 0 32 36" fill="none" xmlns="http://www.w3.org/2000/svg">
<path d="M8.5 4.94829L16 9.28162L23.5 4.94829M8.5 30.915V22.265L1 17.9316M31 17.9316L23.5 22.265V30.915M1.45001 9.53162L16 17.9483L30.55 9.53162M16 34.7316V17.9316M31 24.5983V11.265C30.9994 10.6804 30.8451 10.1063 30.5526 9.60022C30.26 9.09415 29.8396 8.67389 29.3333 8.38162L17.6667 1.71495C17.1599 1.42239 16.5851 1.26837 16 1.26837C15.4149 1.26837 14.8401 1.42239 14.3333 1.71495L2.66667 8.38162C2.16044 8.67389 1.73997 9.09415 1.44744 9.60022C1.1549 10.1063 1.0006 10.6804 1 11.265V24.5983C1.0006 25.1828 1.1549 25.7569 1.44744 26.263C1.73997 26.7691 2.16044 27.1893 2.66667 27.4816L14.3333 34.1483C14.8401 34.4408 15.4149 34.5949 16 34.5949C16.5851 34.5949 17.1599 34.4408 17.6667 34.1483L29.3333 27.4816C29.8396 27.1893 30.26 26.7691 30.5526 26.263C30.8451 25.7569 30.9994 25.1828 31 24.5983Z" stroke="#FA6400" stroke-width="2" stroke-linecap="round" stroke-linejoin="round"/>
</svg>
